<mxfile host="app.diagrams.net" modified="2020-12-09T08:49:41.700Z" agent="5.0 (Macintosh; Intel Mac OS X 10_14_6) AppleWebKit/537.36 (KHTML, like Gecko) Chrome/87.0.4280.67 Safari/537.36" etag="GguYgYuHcp612_jMOXj9" version="13.10.6" type="github" pages="5">
  <diagram id="C5RBs43oDa-KdzZeNtuy" name="Page-1">
    <mxGraphModel dx="2306" dy="1154" grid="1" gridSize="10" guides="1" tooltips="1" connect="1" arrows="1" fold="1" page="1" pageScale="1" pageWidth="827" pageHeight="1169" math="0" shadow="0">
      <root>
        <mxCell id="WIyWlLk6GJQsqaUBKTNV-0" />
        <mxCell id="WIyWlLk6GJQsqaUBKTNV-1" parent="WIyWlLk6GJQsqaUBKTNV-0" />
        <mxCell id="WIyWlLk6GJQsqaUBKTNV-7" value="&lt;p class=&quot;p1&quot; style=&quot;margin: 0px ; font-stretch: normal ; line-height: normal ; font-family: &amp;#34;helvetica neue&amp;#34;&quot;&gt;FeedPageVideoBaseViewHolder&lt;/p&gt;" style="rounded=1;whiteSpace=wrap;html=1;fontSize=12;glass=0;strokeWidth=1;shadow=0;" parent="WIyWlLk6GJQsqaUBKTNV-1" vertex="1">
          <mxGeometry x="280" y="250" width="180" height="40" as="geometry" />
        </mxCell>
        <mxCell id="WIyWlLk6GJQsqaUBKTNV-12" value="&lt;p class=&quot;p1&quot; style=&quot;margin: 0px ; font-stretch: normal ; line-height: normal ; font-family: &amp;#34;helvetica neue&amp;#34;&quot;&gt;RecommendPageFragment&lt;/p&gt;" style="rounded=1;whiteSpace=wrap;html=1;fontSize=12;glass=0;strokeWidth=1;shadow=0;" parent="WIyWlLk6GJQsqaUBKTNV-1" vertex="1">
          <mxGeometry x="170" y="180" width="160" height="40" as="geometry" />
        </mxCell>
        <mxCell id="dc93sfE9UyBIf47wEjtR-6" value="" style="endArrow=none;html=1;" parent="WIyWlLk6GJQsqaUBKTNV-1" edge="1">
          <mxGeometry width="50" height="50" relative="1" as="geometry">
            <mxPoint x="250" y="560" as="sourcePoint" />
            <mxPoint x="249.5" y="220" as="targetPoint" />
          </mxGeometry>
        </mxCell>
        <mxCell id="dc93sfE9UyBIf47wEjtR-7" value="" style="endArrow=none;html=1;entryX=0;entryY=0.5;entryDx=0;entryDy=0;" parent="WIyWlLk6GJQsqaUBKTNV-1" target="WIyWlLk6GJQsqaUBKTNV-7" edge="1">
          <mxGeometry width="50" height="50" relative="1" as="geometry">
            <mxPoint x="250" y="269.5" as="sourcePoint" />
            <mxPoint x="300" y="270" as="targetPoint" />
          </mxGeometry>
        </mxCell>
        <mxCell id="dc93sfE9UyBIf47wEjtR-8" value="" style="endArrow=none;html=1;" parent="WIyWlLk6GJQsqaUBKTNV-1" edge="1">
          <mxGeometry width="50" height="50" relative="1" as="geometry">
            <mxPoint x="370" y="560" as="sourcePoint" />
            <mxPoint x="369.5" y="290" as="targetPoint" />
          </mxGeometry>
        </mxCell>
        <mxCell id="dc93sfE9UyBIf47wEjtR-15" value="" style="endArrow=none;html=1;" parent="WIyWlLk6GJQsqaUBKTNV-1" edge="1">
          <mxGeometry width="50" height="50" relative="1" as="geometry">
            <mxPoint x="370" y="370" as="sourcePoint" />
            <mxPoint x="480" y="371" as="targetPoint" />
          </mxGeometry>
        </mxCell>
        <mxCell id="dc93sfE9UyBIf47wEjtR-16" value="" style="endArrow=none;html=1;" parent="WIyWlLk6GJQsqaUBKTNV-1" edge="1">
          <mxGeometry width="50" height="50" relative="1" as="geometry">
            <mxPoint x="370" y="510" as="sourcePoint" />
            <mxPoint x="480" y="511" as="targetPoint" />
          </mxGeometry>
        </mxCell>
        <mxCell id="dc93sfE9UyBIf47wEjtR-18" value="第一行标签" style="text;html=1;strokeColor=none;fillColor=none;align=center;verticalAlign=middle;whiteSpace=wrap;rounded=0;" parent="WIyWlLk6GJQsqaUBKTNV-1" vertex="1">
          <mxGeometry x="390" y="350" width="70" height="20" as="geometry" />
        </mxCell>
        <mxCell id="dc93sfE9UyBIf47wEjtR-19" value="第二行标签" style="text;html=1;strokeColor=none;fillColor=none;align=center;verticalAlign=middle;whiteSpace=wrap;rounded=0;" parent="WIyWlLk6GJQsqaUBKTNV-1" vertex="1">
          <mxGeometry x="390" y="490" width="70" height="20" as="geometry" />
        </mxCell>
        <mxCell id="dc93sfE9UyBIf47wEjtR-20" value="" style="shape=curlyBracket;whiteSpace=wrap;html=1;rounded=1;" parent="WIyWlLk6GJQsqaUBKTNV-1" vertex="1">
          <mxGeometry x="480" y="330" width="20" height="80" as="geometry" />
        </mxCell>
        <mxCell id="dc93sfE9UyBIf47wEjtR-22" value="我的好友" style="text;html=1;strokeColor=none;fillColor=none;align=center;verticalAlign=middle;whiteSpace=wrap;rounded=0;" parent="WIyWlLk6GJQsqaUBKTNV-1" vertex="1">
          <mxGeometry x="490" y="350" width="80" height="20" as="geometry" />
        </mxCell>
        <mxCell id="dc93sfE9UyBIf47wEjtR-23" value="腾讯游戏" style="text;html=1;strokeColor=none;fillColor=none;align=center;verticalAlign=middle;whiteSpace=wrap;rounded=0;" parent="WIyWlLk6GJQsqaUBKTNV-1" vertex="1">
          <mxGeometry x="490" y="370" width="80" height="20" as="geometry" />
        </mxCell>
        <mxCell id="dc93sfE9UyBIf47wEjtR-25" value="危险提示" style="text;html=1;strokeColor=none;fillColor=none;align=center;verticalAlign=middle;whiteSpace=wrap;rounded=0;" parent="WIyWlLk6GJQsqaUBKTNV-1" vertex="1">
          <mxGeometry x="490" y="330" width="80" height="20" as="geometry" />
        </mxCell>
        <mxCell id="dc93sfE9UyBIf47wEjtR-26" value="我的关注" style="text;html=1;strokeColor=none;fillColor=none;align=center;verticalAlign=middle;whiteSpace=wrap;rounded=0;" parent="WIyWlLk6GJQsqaUBKTNV-1" vertex="1">
          <mxGeometry x="490" y="390" width="80" height="20" as="geometry" />
        </mxCell>
        <mxCell id="dc93sfE9UyBIf47wEjtR-32" value="" style="shape=curlyBracket;whiteSpace=wrap;html=1;rounded=1;" parent="WIyWlLk6GJQsqaUBKTNV-1" vertex="1">
          <mxGeometry x="480" y="450" width="20" height="120" as="geometry" />
        </mxCell>
        <mxCell id="dc93sfE9UyBIf47wEjtR-33" value="互动视频" style="text;html=1;strokeColor=none;fillColor=none;align=center;verticalAlign=middle;whiteSpace=wrap;rounded=0;" parent="WIyWlLk6GJQsqaUBKTNV-1" vertex="1">
          <mxGeometry x="500" y="470" width="80" height="20" as="geometry" />
        </mxCell>
        <mxCell id="dc93sfE9UyBIf47wEjtR-34" value="拍同款" style="text;html=1;strokeColor=none;fillColor=none;align=center;verticalAlign=middle;whiteSpace=wrap;rounded=0;" parent="WIyWlLk6GJQsqaUBKTNV-1" vertex="1">
          <mxGeometry x="500" y="490" width="80" height="20" as="geometry" />
        </mxCell>
        <mxCell id="dc93sfE9UyBIf47wEjtR-35" value="商业化标签" style="text;html=1;strokeColor=none;fillColor=none;align=center;verticalAlign=middle;whiteSpace=wrap;rounded=0;" parent="WIyWlLk6GJQsqaUBKTNV-1" vertex="1">
          <mxGeometry x="500" y="450" width="80" height="20" as="geometry" />
        </mxCell>
        <mxCell id="dc93sfE9UyBIf47wEjtR-36" value="热搜视频" style="text;html=1;strokeColor=none;fillColor=none;align=center;verticalAlign=middle;whiteSpace=wrap;rounded=0;" parent="WIyWlLk6GJQsqaUBKTNV-1" vertex="1">
          <mxGeometry x="500" y="510" width="80" height="20" as="geometry" />
        </mxCell>
        <mxCell id="dc93sfE9UyBIf47wEjtR-38" value="腾讯视频" style="text;html=1;strokeColor=none;fillColor=none;align=center;verticalAlign=middle;whiteSpace=wrap;rounded=0;" parent="WIyWlLk6GJQsqaUBKTNV-1" vertex="1">
          <mxGeometry x="500" y="535" width="80" height="20" as="geometry" />
        </mxCell>
        <mxCell id="dc93sfE9UyBIf47wEjtR-39" value="小站标签" style="text;html=1;strokeColor=#FCFFB3;fillColor=#FFFF66;align=center;verticalAlign=middle;whiteSpace=wrap;rounded=0;" parent="WIyWlLk6GJQsqaUBKTNV-1" vertex="1">
          <mxGeometry x="500" y="555" width="80" height="20" as="geometry" />
        </mxCell>
        <mxCell id="dc93sfE9UyBIf47wEjtR-40" value="SmallStationLabelView" style="swimlane;fontStyle=1;align=center;verticalAlign=top;childLayout=stackLayout;horizontal=1;startSize=26;horizontalStack=0;resizeParent=1;resizeParentMax=0;resizeLast=0;collapsible=1;marginBottom=0;strokeColor=#000000;fillColor=#FFFFFF;" parent="WIyWlLk6GJQsqaUBKTNV-1" vertex="1">
          <mxGeometry x="390" y="820" width="190" height="100" as="geometry" />
        </mxCell>
        <mxCell id="dc93sfE9UyBIf47wEjtR-41" value="+ data: SmallStationData" style="text;strokeColor=none;fillColor=none;align=left;verticalAlign=top;spacingLeft=4;spacingRight=4;overflow=hidden;rotatable=0;points=[[0,0.5],[1,0.5]];portConstraint=eastwest;" parent="dc93sfE9UyBIf47wEjtR-40" vertex="1">
          <mxGeometry y="26" width="190" height="26" as="geometry" />
        </mxCell>
        <mxCell id="dc93sfE9UyBIf47wEjtR-42" value="" style="line;strokeWidth=1;fillColor=none;align=left;verticalAlign=middle;spacingTop=-1;spacingLeft=3;spacingRight=3;rotatable=0;labelPosition=right;points=[];portConstraint=eastwest;" parent="dc93sfE9UyBIf47wEjtR-40" vertex="1">
          <mxGeometry y="52" width="190" height="8" as="geometry" />
        </mxCell>
        <mxCell id="dc93sfE9UyBIf47wEjtR-43" value="+ init()&#xa;+ update(stMetaFeed)" style="text;strokeColor=none;fillColor=none;align=left;verticalAlign=top;spacingLeft=4;spacingRight=4;overflow=hidden;rotatable=0;points=[[0,0.5],[1,0.5]];portConstraint=eastwest;" parent="dc93sfE9UyBIf47wEjtR-40" vertex="1">
          <mxGeometry y="60" width="190" height="40" as="geometry" />
        </mxCell>
        <mxCell id="dc93sfE9UyBIf47wEjtR-44" value="LinearLayout" style="swimlane;fontStyle=1;align=center;verticalAlign=top;childLayout=stackLayout;horizontal=1;startSize=26;horizontalStack=0;resizeParent=1;resizeParentMax=0;resizeLast=0;collapsible=1;marginBottom=0;strokeColor=#000000;fillColor=#FFFFFF;" parent="WIyWlLk6GJQsqaUBKTNV-1" vertex="1" collapsed="1">
          <mxGeometry x="430" y="740" width="110" height="26" as="geometry">
            <mxRectangle x="380" y="680" width="190" height="34" as="alternateBounds" />
          </mxGeometry>
        </mxCell>
        <mxCell id="dc93sfE9UyBIf47wEjtR-46" value="" style="line;strokeWidth=1;fillColor=none;align=left;verticalAlign=middle;spacingTop=-1;spacingLeft=3;spacingRight=3;rotatable=0;labelPosition=right;points=[];portConstraint=eastwest;" parent="dc93sfE9UyBIf47wEjtR-44" vertex="1">
          <mxGeometry y="26" width="110" height="8" as="geometry" />
        </mxCell>
        <mxCell id="dc93sfE9UyBIf47wEjtR-48" value="Extends" style="endArrow=block;endSize=16;endFill=0;html=1;" parent="WIyWlLk6GJQsqaUBKTNV-1" edge="1">
          <mxGeometry width="160" relative="1" as="geometry">
            <mxPoint x="484.5" y="816" as="sourcePoint" />
            <mxPoint x="484.5" y="766" as="targetPoint" />
          </mxGeometry>
        </mxCell>
        <mxCell id="dc93sfE9UyBIf47wEjtR-51" value="FeedPageVideoBaseViewHolder" style="swimlane;fontStyle=1;align=center;verticalAlign=top;childLayout=stackLayout;horizontal=1;startSize=26;horizontalStack=0;resizeParent=1;resizeParentMax=0;resizeLast=0;collapsible=1;marginBottom=0;strokeColor=#000000;fillColor=#FFFFFF;" parent="WIyWlLk6GJQsqaUBKTNV-1" vertex="1">
          <mxGeometry x="10" y="790" width="280" height="108" as="geometry" />
        </mxCell>
        <mxCell id="dc93sfE9UyBIf47wEjtR-52" value="+ smallStationLabelView: SmallStationLabelView" style="text;strokeColor=none;fillColor=none;align=left;verticalAlign=top;spacingLeft=4;spacingRight=4;overflow=hidden;rotatable=0;points=[[0,0.5],[1,0.5]];portConstraint=eastwest;" parent="dc93sfE9UyBIf47wEjtR-51" vertex="1">
          <mxGeometry y="26" width="280" height="34" as="geometry" />
        </mxCell>
        <mxCell id="dc93sfE9UyBIf47wEjtR-53" value="" style="line;strokeWidth=1;fillColor=none;align=left;verticalAlign=middle;spacingTop=-1;spacingLeft=3;spacingRight=3;rotatable=0;labelPosition=right;points=[];portConstraint=eastwest;" parent="dc93sfE9UyBIf47wEjtR-51" vertex="1">
          <mxGeometry y="60" width="280" height="8" as="geometry" />
        </mxCell>
        <mxCell id="dc93sfE9UyBIf47wEjtR-54" value="+ updateSmallStationLabelView(stMetaFeed)&#xa;+ update()" style="text;strokeColor=none;fillColor=none;align=left;verticalAlign=top;spacingLeft=4;spacingRight=4;overflow=hidden;rotatable=0;points=[[0,0.5],[1,0.5]];portConstraint=eastwest;" parent="dc93sfE9UyBIf47wEjtR-51" vertex="1">
          <mxGeometry y="68" width="280" height="40" as="geometry" />
        </mxCell>
        <mxCell id="dc93sfE9UyBIf47wEjtR-55" value="Use" style="endArrow=open;endSize=12;dashed=1;html=1;" parent="WIyWlLk6GJQsqaUBKTNV-1" edge="1">
          <mxGeometry width="160" relative="1" as="geometry">
            <mxPoint x="290" y="834" as="sourcePoint" />
            <mxPoint x="390" y="834" as="targetPoint" />
          </mxGeometry>
        </mxCell>
        <mxCell id="dc93sfE9UyBIf47wEjtR-56" value="Glide" style="swimlane;fontStyle=1;align=center;verticalAlign=top;childLayout=stackLayout;horizontal=1;startSize=26;horizontalStack=0;resizeParent=1;resizeParentMax=0;resizeLast=0;collapsible=1;marginBottom=0;strokeColor=#000000;fillColor=#FFFFFF;" parent="WIyWlLk6GJQsqaUBKTNV-1" vertex="1" collapsed="1">
          <mxGeometry x="680" y="820" width="110" height="26" as="geometry">
            <mxRectangle x="380" y="680" width="190" height="34" as="alternateBounds" />
          </mxGeometry>
        </mxCell>
        <mxCell id="dc93sfE9UyBIf47wEjtR-57" value="" style="line;strokeWidth=1;fillColor=none;align=left;verticalAlign=middle;spacingTop=-1;spacingLeft=3;spacingRight=3;rotatable=0;labelPosition=right;points=[];portConstraint=eastwest;" parent="dc93sfE9UyBIf47wEjtR-56" vertex="1">
          <mxGeometry y="26" width="110" height="8" as="geometry" />
        </mxCell>
        <mxCell id="dc93sfE9UyBIf47wEjtR-58" value="Use" style="endArrow=open;endSize=12;dashed=1;html=1;" parent="WIyWlLk6GJQsqaUBKTNV-1" edge="1">
          <mxGeometry width="160" relative="1" as="geometry">
            <mxPoint x="580" y="830" as="sourcePoint" />
            <mxPoint x="680" y="830" as="targetPoint" />
          </mxGeometry>
        </mxCell>
      </root>
    </mxGraphModel>
  </diagram>
  <diagram id="wabAERn6slnYQe4Q7LOR" name="Page-2">
    <mxGraphModel dx="2306" dy="1154" grid="1" gridSize="10" guides="1" tooltips="1" connect="1" arrows="1" fold="1" page="1" pageScale="1" pageWidth="827" pageHeight="1169" math="0" shadow="0">
      <root>
        <mxCell id="67eUPcaleRJbDEFXgvDh-0" />
        <mxCell id="67eUPcaleRJbDEFXgvDh-1" parent="67eUPcaleRJbDEFXgvDh-0" />
        <mxCell id="8YO0RPtEFc6gx-80sQMJ-0" value="SmallStationLabelView" style="swimlane;fontStyle=1;align=center;verticalAlign=top;childLayout=stackLayout;horizontal=1;startSize=26;horizontalStack=0;resizeParent=1;resizeParentMax=0;resizeLast=0;collapsible=1;marginBottom=0;strokeColor=#000000;fillColor=#FFFFFF;" parent="67eUPcaleRJbDEFXgvDh-1" vertex="1">
          <mxGeometry x="400" y="830" width="190" height="100" as="geometry" />
        </mxCell>
        <mxCell id="8YO0RPtEFc6gx-80sQMJ-1" value="+ data: SmallStationData" style="text;strokeColor=none;fillColor=none;align=left;verticalAlign=top;spacingLeft=4;spacingRight=4;overflow=hidden;rotatable=0;points=[[0,0.5],[1,0.5]];portConstraint=eastwest;" parent="8YO0RPtEFc6gx-80sQMJ-0" vertex="1">
          <mxGeometry y="26" width="190" height="26" as="geometry" />
        </mxCell>
        <mxCell id="8YO0RPtEFc6gx-80sQMJ-2" value="" style="line;strokeWidth=1;fillColor=none;align=left;verticalAlign=middle;spacingTop=-1;spacingLeft=3;spacingRight=3;rotatable=0;labelPosition=right;points=[];portConstraint=eastwest;" parent="8YO0RPtEFc6gx-80sQMJ-0" vertex="1">
          <mxGeometry y="52" width="190" height="8" as="geometry" />
        </mxCell>
        <mxCell id="8YO0RPtEFc6gx-80sQMJ-3" value="+ init()&#xa;+ update(stMetaFeed)" style="text;strokeColor=none;fillColor=none;align=left;verticalAlign=top;spacingLeft=4;spacingRight=4;overflow=hidden;rotatable=0;points=[[0,0.5],[1,0.5]];portConstraint=eastwest;" parent="8YO0RPtEFc6gx-80sQMJ-0" vertex="1">
          <mxGeometry y="60" width="190" height="40" as="geometry" />
        </mxCell>
        <mxCell id="8YO0RPtEFc6gx-80sQMJ-4" value="LinearLayout" style="swimlane;fontStyle=1;align=center;verticalAlign=top;childLayout=stackLayout;horizontal=1;startSize=26;horizontalStack=0;resizeParent=1;resizeParentMax=0;resizeLast=0;collapsible=1;marginBottom=0;strokeColor=#000000;fillColor=#FFFFFF;" parent="67eUPcaleRJbDEFXgvDh-1" vertex="1" collapsed="1">
          <mxGeometry x="440" y="750" width="110" height="26" as="geometry">
            <mxRectangle x="380" y="680" width="190" height="34" as="alternateBounds" />
          </mxGeometry>
        </mxCell>
        <mxCell id="8YO0RPtEFc6gx-80sQMJ-5" value="" style="line;strokeWidth=1;fillColor=none;align=left;verticalAlign=middle;spacingTop=-1;spacingLeft=3;spacingRight=3;rotatable=0;labelPosition=right;points=[];portConstraint=eastwest;" parent="8YO0RPtEFc6gx-80sQMJ-4" vertex="1">
          <mxGeometry y="26" width="110" height="8" as="geometry" />
        </mxCell>
        <mxCell id="8YO0RPtEFc6gx-80sQMJ-6" value="Extends" style="endArrow=block;endSize=16;endFill=0;html=1;" parent="67eUPcaleRJbDEFXgvDh-1" edge="1">
          <mxGeometry width="160" relative="1" as="geometry">
            <mxPoint x="494.5" y="826" as="sourcePoint" />
            <mxPoint x="494.5" y="776" as="targetPoint" />
          </mxGeometry>
        </mxCell>
        <mxCell id="8YO0RPtEFc6gx-80sQMJ-7" value="FeedPageVideoBaseViewHolder" style="swimlane;fontStyle=1;align=center;verticalAlign=top;childLayout=stackLayout;horizontal=1;startSize=26;horizontalStack=0;resizeParent=1;resizeParentMax=0;resizeLast=0;collapsible=1;marginBottom=0;strokeColor=#000000;fillColor=#FFFFFF;" parent="67eUPcaleRJbDEFXgvDh-1" vertex="1">
          <mxGeometry x="20" y="800" width="280" height="108" as="geometry" />
        </mxCell>
        <mxCell id="8YO0RPtEFc6gx-80sQMJ-8" value="+ smallStationLabelView: SmallStationLabelView" style="text;strokeColor=none;fillColor=none;align=left;verticalAlign=top;spacingLeft=4;spacingRight=4;overflow=hidden;rotatable=0;points=[[0,0.5],[1,0.5]];portConstraint=eastwest;" parent="8YO0RPtEFc6gx-80sQMJ-7" vertex="1">
          <mxGeometry y="26" width="280" height="34" as="geometry" />
        </mxCell>
        <mxCell id="8YO0RPtEFc6gx-80sQMJ-9" value="" style="line;strokeWidth=1;fillColor=none;align=left;verticalAlign=middle;spacingTop=-1;spacingLeft=3;spacingRight=3;rotatable=0;labelPosition=right;points=[];portConstraint=eastwest;" parent="8YO0RPtEFc6gx-80sQMJ-7" vertex="1">
          <mxGeometry y="60" width="280" height="8" as="geometry" />
        </mxCell>
        <mxCell id="8YO0RPtEFc6gx-80sQMJ-10" value="+ updateSmallStationLabelView(stMetaFeed)&#xa;+ update()" style="text;strokeColor=none;fillColor=none;align=left;verticalAlign=top;spacingLeft=4;spacingRight=4;overflow=hidden;rotatable=0;points=[[0,0.5],[1,0.5]];portConstraint=eastwest;" parent="8YO0RPtEFc6gx-80sQMJ-7" vertex="1">
          <mxGeometry y="68" width="280" height="40" as="geometry" />
        </mxCell>
        <mxCell id="8YO0RPtEFc6gx-80sQMJ-11" value="Use" style="endArrow=open;endSize=12;dashed=1;html=1;" parent="67eUPcaleRJbDEFXgvDh-1" edge="1">
          <mxGeometry width="160" relative="1" as="geometry">
            <mxPoint x="300" y="844" as="sourcePoint" />
            <mxPoint x="400" y="844" as="targetPoint" />
          </mxGeometry>
        </mxCell>
        <mxCell id="8YO0RPtEFc6gx-80sQMJ-12" value="Glide" style="swimlane;fontStyle=1;align=center;verticalAlign=top;childLayout=stackLayout;horizontal=1;startSize=26;horizontalStack=0;resizeParent=1;resizeParentMax=0;resizeLast=0;collapsible=1;marginBottom=0;strokeColor=#000000;fillColor=#FFFFFF;" parent="67eUPcaleRJbDEFXgvDh-1" vertex="1" collapsed="1">
          <mxGeometry x="690" y="830" width="110" height="26" as="geometry">
            <mxRectangle x="380" y="680" width="190" height="34" as="alternateBounds" />
          </mxGeometry>
        </mxCell>
        <mxCell id="8YO0RPtEFc6gx-80sQMJ-13" value="" style="line;strokeWidth=1;fillColor=none;align=left;verticalAlign=middle;spacingTop=-1;spacingLeft=3;spacingRight=3;rotatable=0;labelPosition=right;points=[];portConstraint=eastwest;" parent="8YO0RPtEFc6gx-80sQMJ-12" vertex="1">
          <mxGeometry y="26" width="110" height="8" as="geometry" />
        </mxCell>
        <mxCell id="8YO0RPtEFc6gx-80sQMJ-14" value="Use" style="endArrow=open;endSize=12;dashed=1;html=1;" parent="67eUPcaleRJbDEFXgvDh-1" edge="1">
          <mxGeometry width="160" relative="1" as="geometry">
            <mxPoint x="590" y="840" as="sourcePoint" />
            <mxPoint x="690" y="840" as="targetPoint" />
          </mxGeometry>
        </mxCell>
      </root>
    </mxGraphModel>
  </diagram>
  <diagram id="I6-15hiW3-KrxBuXK7nD" name="Page-3">
    <mxGraphModel dx="2306" dy="1154" grid="1" gridSize="10" guides="1" tooltips="1" connect="1" arrows="1" fold="1" page="1" pageScale="1" pageWidth="827" pageHeight="1169" math="0" shadow="0">
      <root>
        <mxCell id="jVmxp_MZ3WPJFeqmC4qx-0" />
        <mxCell id="jVmxp_MZ3WPJFeqmC4qx-1" parent="jVmxp_MZ3WPJFeqmC4qx-0" />
        <mxCell id="2cqYvJeEO9u14I1k8Dg2-0" value="启动app" style="rounded=0;whiteSpace=wrap;html=1;" vertex="1" parent="jVmxp_MZ3WPJFeqmC4qx-1">
          <mxGeometry x="350" y="330" width="120" height="50" as="geometry" />
        </mxCell>
        <mxCell id="2cqYvJeEO9u14I1k8Dg2-1" value="初始化Fragement" style="rounded=0;whiteSpace=wrap;html=1;" vertex="1" parent="jVmxp_MZ3WPJFeqmC4qx-1">
          <mxGeometry x="330" y="420" width="160" height="50" as="geometry" />
        </mxCell>
        <mxCell id="2cqYvJeEO9u14I1k8Dg2-2" value="" style="shape=singleArrow;direction=south;whiteSpace=wrap;html=1;" vertex="1" parent="jVmxp_MZ3WPJFeqmC4qx-1">
          <mxGeometry x="404" y="380" width="20" height="40" as="geometry" />
        </mxCell>
        <mxCell id="2cqYvJeEO9u14I1k8Dg2-4" value="光子引擎初始化标签View" style="rounded=0;whiteSpace=wrap;html=1;fillColor=#FCFFB3;" vertex="1" parent="jVmxp_MZ3WPJFeqmC4qx-1">
          <mxGeometry x="334" y="600" width="160" height="50" as="geometry" />
        </mxCell>
        <mxCell id="2cqYvJeEO9u14I1k8Dg2-5" value="" style="shape=singleArrow;direction=south;whiteSpace=wrap;html=1;" vertex="1" parent="jVmxp_MZ3WPJFeqmC4qx-1">
          <mxGeometry x="404" y="470" width="20" height="40" as="geometry" />
        </mxCell>
        <mxCell id="2cqYvJeEO9u14I1k8Dg2-6" value="初始化ViewHolder" style="rounded=0;whiteSpace=wrap;html=1;" vertex="1" parent="jVmxp_MZ3WPJFeqmC4qx-1">
          <mxGeometry x="334" y="510" width="160" height="50" as="geometry" />
        </mxCell>
        <mxCell id="2cqYvJeEO9u14I1k8Dg2-7" value="" style="shape=singleArrow;direction=south;whiteSpace=wrap;html=1;" vertex="1" parent="jVmxp_MZ3WPJFeqmC4qx-1">
          <mxGeometry x="404" y="560" width="20" height="40" as="geometry" />
        </mxCell>
        <mxCell id="2cqYvJeEO9u14I1k8Dg2-17" value="滑动/RecycleView.notify" style="rounded=0;whiteSpace=wrap;html=1;" vertex="1" parent="jVmxp_MZ3WPJFeqmC4qx-1">
          <mxGeometry x="614" y="330" width="160" height="50" as="geometry" />
        </mxCell>
        <mxCell id="2cqYvJeEO9u14I1k8Dg2-18" value="ViewHolder.binddata()" style="rounded=0;whiteSpace=wrap;html=1;" vertex="1" parent="jVmxp_MZ3WPJFeqmC4qx-1">
          <mxGeometry x="610" y="420" width="160" height="50" as="geometry" />
        </mxCell>
        <mxCell id="2cqYvJeEO9u14I1k8Dg2-19" value="" style="shape=singleArrow;direction=south;whiteSpace=wrap;html=1;" vertex="1" parent="jVmxp_MZ3WPJFeqmC4qx-1">
          <mxGeometry x="684" y="380" width="20" height="40" as="geometry" />
        </mxCell>
        <mxCell id="2cqYvJeEO9u14I1k8Dg2-20" value="更新UI" style="rounded=0;whiteSpace=wrap;html=1;fillColor=#FCFFB3;" vertex="1" parent="jVmxp_MZ3WPJFeqmC4qx-1">
          <mxGeometry x="614" y="600" width="160" height="50" as="geometry" />
        </mxCell>
        <mxCell id="2cqYvJeEO9u14I1k8Dg2-21" value="" style="shape=singleArrow;direction=south;whiteSpace=wrap;html=1;" vertex="1" parent="jVmxp_MZ3WPJFeqmC4qx-1">
          <mxGeometry x="684" y="470" width="20" height="40" as="geometry" />
        </mxCell>
        <mxCell id="2cqYvJeEO9u14I1k8Dg2-22" value="LabelView.updata" style="rounded=0;whiteSpace=wrap;html=1;" vertex="1" parent="jVmxp_MZ3WPJFeqmC4qx-1">
          <mxGeometry x="614" y="510" width="160" height="50" as="geometry" />
        </mxCell>
        <mxCell id="2cqYvJeEO9u14I1k8Dg2-23" value="" style="shape=singleArrow;direction=south;whiteSpace=wrap;html=1;" vertex="1" parent="jVmxp_MZ3WPJFeqmC4qx-1">
          <mxGeometry x="684" y="560" width="20" height="40" as="geometry" />
        </mxCell>
        <mxCell id="2cqYvJeEO9u14I1k8Dg2-24" value="View初始化" style="text;strokeColor=none;fillColor=none;html=1;fontSize=24;fontStyle=1;verticalAlign=middle;align=center;" vertex="1" parent="jVmxp_MZ3WPJFeqmC4qx-1">
          <mxGeometry x="360" y="260" width="100" height="40" as="geometry" />
        </mxCell>
        <mxCell id="2cqYvJeEO9u14I1k8Dg2-25" value="更新数据" style="text;strokeColor=none;fillColor=none;html=1;fontSize=24;fontStyle=1;verticalAlign=middle;align=center;" vertex="1" parent="jVmxp_MZ3WPJFeqmC4qx-1">
          <mxGeometry x="644" y="260" width="100" height="40" as="geometry" />
        </mxCell>
      </root>
    </mxGraphModel>
  </diagram>
  <diagram id="oD4SUhl6G8x4lbqcH-oT" name="Page-4">
    <mxGraphModel dx="1647" dy="824" grid="1" gridSize="10" guides="1" tooltips="1" connect="1" arrows="1" fold="1" page="1" pageScale="1" pageWidth="827" pageHeight="1169" math="0" shadow="0">
      <root>
        <mxCell id="Xd-14DwYwZ5U8mpfk3tR-0" />
        <mxCell id="Xd-14DwYwZ5U8mpfk3tR-1" parent="Xd-14DwYwZ5U8mpfk3tR-0" />
        <mxCell id="VsbIi5DKzoUlLUWBIbJB-0" value="&lt;p class=&quot;p1&quot; style=&quot;margin: 0px ; font-stretch: normal ; line-height: normal ; font-family: &amp;#34;helvetica neue&amp;#34;&quot;&gt;ViewPager&lt;/p&gt;" style="rounded=1;whiteSpace=wrap;html=1;fontSize=12;glass=0;strokeWidth=1;shadow=0;" vertex="1" parent="Xd-14DwYwZ5U8mpfk3tR-1">
          <mxGeometry x="290" y="260" width="100" height="40" as="geometry" />
        </mxCell>
        <mxCell id="VsbIi5DKzoUlLUWBIbJB-1" value="&lt;p class=&quot;p1&quot; style=&quot;margin: 0px ; font-stretch: normal ; line-height: normal ; font-family: &amp;#34;helvetica neue&amp;#34;&quot;&gt;GlobalSearchActivity&lt;/p&gt;" style="rounded=1;whiteSpace=wrap;html=1;fontSize=12;glass=0;strokeWidth=1;shadow=0;" vertex="1" parent="Xd-14DwYwZ5U8mpfk3tR-1">
          <mxGeometry x="180" y="190" width="160" height="40" as="geometry" />
        </mxCell>
        <mxCell id="VsbIi5DKzoUlLUWBIbJB-2" value="" style="endArrow=none;html=1;" edge="1" parent="Xd-14DwYwZ5U8mpfk3tR-1">
          <mxGeometry width="50" height="50" relative="1" as="geometry">
            <mxPoint x="260" y="530" as="sourcePoint" />
            <mxPoint x="259.5" y="230" as="targetPoint" />
          </mxGeometry>
        </mxCell>
        <mxCell id="VsbIi5DKzoUlLUWBIbJB-3" value="" style="endArrow=none;html=1;entryX=0;entryY=0.5;entryDx=0;entryDy=0;" edge="1" parent="Xd-14DwYwZ5U8mpfk3tR-1" target="VsbIi5DKzoUlLUWBIbJB-0">
          <mxGeometry width="50" height="50" relative="1" as="geometry">
            <mxPoint x="260" y="279.5" as="sourcePoint" />
            <mxPoint x="310" y="280" as="targetPoint" />
          </mxGeometry>
        </mxCell>
        <mxCell id="VsbIi5DKzoUlLUWBIbJB-4" value="" style="endArrow=none;html=1;" edge="1" parent="Xd-14DwYwZ5U8mpfk3tR-1">
          <mxGeometry width="50" height="50" relative="1" as="geometry">
            <mxPoint x="340" y="530" as="sourcePoint" />
            <mxPoint x="340" y="300" as="targetPoint" />
          </mxGeometry>
        </mxCell>
        <mxCell id="VsbIi5DKzoUlLUWBIbJB-26" value="&lt;p class=&quot;p1&quot; style=&quot;margin: 0px ; font-stretch: normal ; line-height: normal ; font-family: &amp;#34;.pingfang sc&amp;#34;&quot;&gt;综合TabPage&lt;/p&gt;" style="rounded=1;whiteSpace=wrap;html=1;fontSize=12;glass=0;strokeWidth=1;shadow=0;" vertex="1" parent="Xd-14DwYwZ5U8mpfk3tR-1">
          <mxGeometry x="370" y="310" width="80" height="20" as="geometry" />
        </mxCell>
        <mxCell id="VsbIi5DKzoUlLUWBIbJB-27" value="" style="endArrow=none;html=1;" edge="1" parent="Xd-14DwYwZ5U8mpfk3tR-1">
          <mxGeometry width="50" height="50" relative="1" as="geometry">
            <mxPoint x="340" y="320" as="sourcePoint" />
            <mxPoint x="370" y="320" as="targetPoint" />
          </mxGeometry>
        </mxCell>
        <mxCell id="VsbIi5DKzoUlLUWBIbJB-28" value="" style="endArrow=none;html=1;" edge="1" parent="Xd-14DwYwZ5U8mpfk3tR-1">
          <mxGeometry width="50" height="50" relative="1" as="geometry">
            <mxPoint x="340" y="399.83000000000004" as="sourcePoint" />
            <mxPoint x="370" y="399.83000000000004" as="targetPoint" />
          </mxGeometry>
        </mxCell>
        <mxCell id="VsbIi5DKzoUlLUWBIbJB-29" value="" style="endArrow=none;html=1;" edge="1" parent="Xd-14DwYwZ5U8mpfk3tR-1">
          <mxGeometry width="50" height="50" relative="1" as="geometry">
            <mxPoint x="340" y="429.83000000000004" as="sourcePoint" />
            <mxPoint x="370" y="429.83000000000004" as="targetPoint" />
          </mxGeometry>
        </mxCell>
        <mxCell id="VsbIi5DKzoUlLUWBIbJB-30" value="" style="endArrow=none;html=1;" edge="1" parent="Xd-14DwYwZ5U8mpfk3tR-1">
          <mxGeometry width="50" height="50" relative="1" as="geometry">
            <mxPoint x="340" y="459.83000000000004" as="sourcePoint" />
            <mxPoint x="370" y="459.83000000000004" as="targetPoint" />
          </mxGeometry>
        </mxCell>
        <mxCell id="VsbIi5DKzoUlLUWBIbJB-31" value="&lt;p class=&quot;p1&quot; style=&quot;margin: 0px ; font-stretch: normal ; line-height: normal ; font-family: &amp;#34;.pingfang sc&amp;#34;&quot;&gt;用户TabPage&lt;/p&gt;" style="rounded=1;whiteSpace=wrap;html=1;fontSize=12;glass=0;strokeWidth=1;shadow=0;" vertex="1" parent="Xd-14DwYwZ5U8mpfk3tR-1">
          <mxGeometry x="370" y="390" width="80" height="20" as="geometry" />
        </mxCell>
        <mxCell id="VsbIi5DKzoUlLUWBIbJB-32" value="&lt;p class=&quot;p1&quot; style=&quot;margin: 0px ; font-stretch: normal ; line-height: normal ; font-family: &amp;#34;.pingfang sc&amp;#34;&quot;&gt;作品TabPage&lt;/p&gt;" style="rounded=1;whiteSpace=wrap;html=1;fontSize=12;glass=0;strokeWidth=1;shadow=0;" vertex="1" parent="Xd-14DwYwZ5U8mpfk3tR-1">
          <mxGeometry x="370" y="420" width="80" height="20" as="geometry" />
        </mxCell>
        <mxCell id="VsbIi5DKzoUlLUWBIbJB-33" value="&lt;p class=&quot;p1&quot; style=&quot;margin: 0px ; font-stretch: normal ; line-height: normal ; font-family: &amp;#34;.pingfang sc&amp;#34;&quot;&gt;音乐TabPage&lt;/p&gt;" style="rounded=1;whiteSpace=wrap;html=1;fontSize=12;glass=0;strokeWidth=1;shadow=0;" vertex="1" parent="Xd-14DwYwZ5U8mpfk3tR-1">
          <mxGeometry x="370" y="450" width="80" height="20" as="geometry" />
        </mxCell>
        <mxCell id="VsbIi5DKzoUlLUWBIbJB-34" value="&lt;p class=&quot;p1&quot; style=&quot;margin: 0px ; font-stretch: normal ; line-height: normal ; font-family: &amp;#34;helvetica neue&amp;#34;&quot;&gt;RecycleView&lt;/p&gt;" style="rounded=1;whiteSpace=wrap;html=1;fontSize=12;glass=0;strokeWidth=1;shadow=0;" vertex="1" parent="Xd-14DwYwZ5U8mpfk3tR-1">
          <mxGeometry x="440" y="340" width="80" height="20" as="geometry" />
        </mxCell>
        <mxCell id="VsbIi5DKzoUlLUWBIbJB-35" value="" style="endArrow=none;html=1;" edge="1" parent="Xd-14DwYwZ5U8mpfk3tR-1">
          <mxGeometry width="50" height="50" relative="1" as="geometry">
            <mxPoint x="410" y="350" as="sourcePoint" />
            <mxPoint x="409.75" y="330" as="targetPoint" />
          </mxGeometry>
        </mxCell>
        <mxCell id="VsbIi5DKzoUlLUWBIbJB-36" value="" style="endArrow=none;html=1;" edge="1" parent="Xd-14DwYwZ5U8mpfk3tR-1">
          <mxGeometry width="50" height="50" relative="1" as="geometry">
            <mxPoint x="410" y="349.83" as="sourcePoint" />
            <mxPoint x="440" y="349.83" as="targetPoint" />
          </mxGeometry>
        </mxCell>
        <mxCell id="VsbIi5DKzoUlLUWBIbJB-37" value="" style="endArrow=none;html=1;" edge="1" parent="Xd-14DwYwZ5U8mpfk3tR-1">
          <mxGeometry width="50" height="50" relative="1" as="geometry">
            <mxPoint x="480" y="530" as="sourcePoint" />
            <mxPoint x="479.75" y="360" as="targetPoint" />
          </mxGeometry>
        </mxCell>
        <mxCell id="VsbIi5DKzoUlLUWBIbJB-38" value="&lt;p class=&quot;p1&quot; style=&quot;margin: 0px ; font-stretch: normal ; line-height: normal ; font-family: &amp;#34;.pingfang sc&amp;#34;&quot;&gt;&lt;span class=&quot;s1&quot; style=&quot;font-stretch: normal ; line-height: normal ; font-family: &amp;#34;helvetica neue&amp;#34;&quot;&gt;&lt;span class=&quot;Apple-converted-space&quot;&gt;&amp;nbsp;&lt;/span&gt;&lt;/span&gt;推荐词&lt;/p&gt;" style="rounded=1;whiteSpace=wrap;html=1;fontSize=12;glass=0;strokeWidth=1;shadow=0;" vertex="1" parent="Xd-14DwYwZ5U8mpfk3tR-1">
          <mxGeometry x="510" y="370" width="60" height="20" as="geometry" />
        </mxCell>
        <mxCell id="VsbIi5DKzoUlLUWBIbJB-39" value="&lt;p class=&quot;p1&quot; style=&quot;margin: 0px ; font-stretch: normal ; line-height: normal ; font-family: &amp;#34;helvetica neue&amp;#34;&quot;&gt;banner&lt;span class=&quot;s1&quot; style=&quot;font-stretch: normal ; line-height: normal ; font-family: &amp;#34;.pingfang sc&amp;#34;&quot;&gt;位&lt;/span&gt;&lt;/p&gt;" style="rounded=1;whiteSpace=wrap;html=1;fontSize=12;glass=0;strokeWidth=1;shadow=0;" vertex="1" parent="Xd-14DwYwZ5U8mpfk3tR-1">
          <mxGeometry x="510" y="400" width="60" height="20" as="geometry" />
        </mxCell>
        <mxCell id="VsbIi5DKzoUlLUWBIbJB-40" value="&lt;p class=&quot;p1&quot; style=&quot;margin: 0px ; font-stretch: normal ; line-height: normal ; font-family: &amp;#34;.pingfang sc&amp;#34;&quot;&gt;热搜排名&lt;/p&gt;" style="rounded=1;whiteSpace=wrap;html=1;fontSize=12;glass=0;strokeWidth=1;shadow=0;" vertex="1" parent="Xd-14DwYwZ5U8mpfk3tR-1">
          <mxGeometry x="510" y="460" width="60" height="20" as="geometry" />
        </mxCell>
        <mxCell id="VsbIi5DKzoUlLUWBIbJB-41" value="" style="endArrow=none;html=1;" edge="1" parent="Xd-14DwYwZ5U8mpfk3tR-1">
          <mxGeometry width="50" height="50" relative="1" as="geometry">
            <mxPoint x="480" y="379.99999999999994" as="sourcePoint" />
            <mxPoint x="510" y="379.99999999999994" as="targetPoint" />
          </mxGeometry>
        </mxCell>
        <mxCell id="VsbIi5DKzoUlLUWBIbJB-42" value="" style="endArrow=none;html=1;" edge="1" parent="Xd-14DwYwZ5U8mpfk3tR-1">
          <mxGeometry width="50" height="50" relative="1" as="geometry">
            <mxPoint x="480" y="409.83" as="sourcePoint" />
            <mxPoint x="510" y="409.83" as="targetPoint" />
          </mxGeometry>
        </mxCell>
        <mxCell id="VsbIi5DKzoUlLUWBIbJB-43" value="&lt;p class=&quot;p1&quot; style=&quot;margin: 0px ; font-stretch: normal ; line-height: normal ; font-family: &amp;#34;.pingfang sc&amp;#34;&quot;&gt;小站卡片&lt;/p&gt;" style="rounded=1;whiteSpace=wrap;html=1;fontSize=12;glass=0;strokeWidth=1;shadow=0;fillColor=#FFFF66;" vertex="1" parent="Xd-14DwYwZ5U8mpfk3tR-1">
          <mxGeometry x="510" y="430" width="60" height="20" as="geometry" />
        </mxCell>
        <mxCell id="VsbIi5DKzoUlLUWBIbJB-44" value="" style="endArrow=none;html=1;" edge="1" parent="Xd-14DwYwZ5U8mpfk3tR-1">
          <mxGeometry width="50" height="50" relative="1" as="geometry">
            <mxPoint x="480" y="439.99999999999994" as="sourcePoint" />
            <mxPoint x="510" y="439.99999999999994" as="targetPoint" />
          </mxGeometry>
        </mxCell>
        <mxCell id="VsbIi5DKzoUlLUWBIbJB-46" value="" style="endArrow=none;html=1;" edge="1" parent="Xd-14DwYwZ5U8mpfk3tR-1">
          <mxGeometry width="50" height="50" relative="1" as="geometry">
            <mxPoint x="480" y="469.66" as="sourcePoint" />
            <mxPoint x="510" y="469.66" as="targetPoint" />
          </mxGeometry>
        </mxCell>
        <mxCell id="VsbIi5DKzoUlLUWBIbJB-47" value="&lt;p class=&quot;p1&quot; style=&quot;margin: 0px ; font-stretch: normal ; line-height: normal ; font-family: &amp;#34;.pingfang sc&amp;#34;&quot;&gt;用户&lt;/p&gt;" style="rounded=1;whiteSpace=wrap;html=1;fontSize=12;glass=0;strokeWidth=1;shadow=0;" vertex="1" parent="Xd-14DwYwZ5U8mpfk3tR-1">
          <mxGeometry x="510" y="490" width="60" height="20" as="geometry" />
        </mxCell>
        <mxCell id="VsbIi5DKzoUlLUWBIbJB-48" value="" style="endArrow=none;html=1;" edge="1" parent="Xd-14DwYwZ5U8mpfk3tR-1">
          <mxGeometry width="50" height="50" relative="1" as="geometry">
            <mxPoint x="480" y="499.65999999999997" as="sourcePoint" />
            <mxPoint x="510" y="499.65999999999997" as="targetPoint" />
          </mxGeometry>
        </mxCell>
        <mxCell id="VsbIi5DKzoUlLUWBIbJB-49" value="&lt;p class=&quot;p1&quot; style=&quot;margin: 0px ; font-stretch: normal ; line-height: normal ; font-family: &amp;#34;helvetica neue&amp;#34;&quot;&gt;GlobalSearchSmallStationItem&lt;/p&gt;" style="rounded=1;whiteSpace=wrap;html=1;fontSize=12;glass=0;strokeWidth=1;shadow=0;fillColor=#FFFF66;" vertex="1" parent="Xd-14DwYwZ5U8mpfk3tR-1">
          <mxGeometry x="590" y="430" width="170" height="20" as="geometry" />
        </mxCell>
        <mxCell id="VsbIi5DKzoUlLUWBIbJB-50" value="&lt;p class=&quot;p1&quot; style=&quot;margin: 0px ; font-stretch: normal ; line-height: normal ; font-family: &amp;#34;helvetica neue&amp;#34;&quot;&gt;GlobalSearchTabAllHolderSynergyResultItem&lt;/p&gt;" style="rounded=1;whiteSpace=wrap;html=1;fontSize=12;glass=0;strokeWidth=1;shadow=0;" vertex="1" parent="Xd-14DwYwZ5U8mpfk3tR-1">
          <mxGeometry x="590" y="370" width="250" height="20" as="geometry" />
        </mxCell>
        <mxCell id="VsbIi5DKzoUlLUWBIbJB-51" value="&lt;p class=&quot;p1&quot; style=&quot;margin: 0px ; font-stretch: normal ; line-height: normal ; font-family: &amp;#34;helvetica neue&amp;#34;&quot;&gt;GlobalSearchTabAllHolderBannerItem&lt;/p&gt;" style="rounded=1;whiteSpace=wrap;html=1;fontSize=12;glass=0;strokeWidth=1;shadow=0;" vertex="1" parent="Xd-14DwYwZ5U8mpfk3tR-1">
          <mxGeometry x="590" y="400" width="220" height="20" as="geometry" />
        </mxCell>
        <mxCell id="VsbIi5DKzoUlLUWBIbJB-52" value="&lt;p class=&quot;p1&quot; style=&quot;margin: 0px ; font-stretch: normal ; line-height: normal ; font-family: &amp;#34;helvetica neue&amp;#34;&quot;&gt;GlobalSearchTabAllHolderRecommendHotVideoItem&lt;/p&gt;" style="rounded=1;whiteSpace=wrap;html=1;fontSize=12;glass=0;strokeWidth=1;shadow=0;" vertex="1" parent="Xd-14DwYwZ5U8mpfk3tR-1">
          <mxGeometry x="590" y="460" width="290" height="20" as="geometry" />
        </mxCell>
        <mxCell id="VsbIi5DKzoUlLUWBIbJB-53" value="&lt;p class=&quot;p1&quot; style=&quot;margin: 0px ; font-stretch: normal ; line-height: normal ; font-family: &amp;#34;helvetica neue&amp;#34;&quot;&gt;GlobalSearchTabAllHolderHeaderItem&lt;/p&gt;" style="rounded=1;whiteSpace=wrap;html=1;fontSize=12;glass=0;strokeWidth=1;shadow=0;" vertex="1" parent="Xd-14DwYwZ5U8mpfk3tR-1">
          <mxGeometry x="590" y="490" width="240" height="20" as="geometry" />
        </mxCell>
      </root>
    </mxGraphModel>
  </diagram>
  <diagram id="JRFOJSIPz8rwz3UJ1EvK" name="Page-5">
    <mxGraphModel dx="2306" dy="1154" grid="1" gridSize="10" guides="1" tooltips="1" connect="1" arrows="1" fold="1" page="1" pageScale="1" pageWidth="827" pageHeight="1169" math="0" shadow="0">
      <root>
        <mxCell id="T-NDJ__dutvVXYw_cZLR-0" />
        <mxCell id="T-NDJ__dutvVXYw_cZLR-1" parent="T-NDJ__dutvVXYw_cZLR-0" />
        <mxCell id="T-NDJ__dutvVXYw_cZLR-2" value="GlobalSearchSmallStationItem" style="swimlane;fontStyle=1;align=center;verticalAlign=top;childLayout=stackLayout;horizontal=1;startSize=26;horizontalStack=0;resizeParent=1;resizeParentMax=0;resizeLast=0;collapsible=1;marginBottom=0;strokeColor=#000000;fillColor=#FCFFB3;" vertex="1" parent="T-NDJ__dutvVXYw_cZLR-1">
          <mxGeometry x="410" y="840" width="200" height="100" as="geometry" />
        </mxCell>
        <mxCell id="T-NDJ__dutvVXYw_cZLR-3" value="+ data: SmallStationData" style="text;strokeColor=none;fillColor=#FCFFB3;align=left;verticalAlign=top;spacingLeft=4;spacingRight=4;overflow=hidden;rotatable=0;points=[[0,0.5],[1,0.5]];portConstraint=eastwest;" vertex="1" parent="T-NDJ__dutvVXYw_cZLR-2">
          <mxGeometry y="26" width="200" height="26" as="geometry" />
        </mxCell>
        <mxCell id="T-NDJ__dutvVXYw_cZLR-4" value="" style="line;strokeWidth=1;fillColor=none;align=left;verticalAlign=middle;spacingTop=-1;spacingLeft=3;spacingRight=3;rotatable=0;labelPosition=right;points=[];portConstraint=eastwest;" vertex="1" parent="T-NDJ__dutvVXYw_cZLR-2">
          <mxGeometry y="52" width="200" height="8" as="geometry" />
        </mxCell>
        <mxCell id="T-NDJ__dutvVXYw_cZLR-5" value="+ init()&#xa;+ update()" style="text;strokeColor=none;fillColor=#FCFFB3;align=left;verticalAlign=top;spacingLeft=4;spacingRight=4;overflow=hidden;rotatable=0;points=[[0,0.5],[1,0.5]];portConstraint=eastwest;" vertex="1" parent="T-NDJ__dutvVXYw_cZLR-2">
          <mxGeometry y="60" width="200" height="40" as="geometry" />
        </mxCell>
        <mxCell id="T-NDJ__dutvVXYw_cZLR-6" value="FrameLayoutLayout" style="swimlane;fontStyle=1;align=center;verticalAlign=top;childLayout=stackLayout;horizontal=1;startSize=26;horizontalStack=0;resizeParent=1;resizeParentMax=0;resizeLast=0;collapsible=1;marginBottom=0;strokeColor=#000000;fillColor=#FFFFFF;" vertex="1" collapsed="1" parent="T-NDJ__dutvVXYw_cZLR-1">
          <mxGeometry x="430" y="760" width="150" height="26" as="geometry">
            <mxRectangle x="380" y="680" width="190" height="34" as="alternateBounds" />
          </mxGeometry>
        </mxCell>
        <mxCell id="T-NDJ__dutvVXYw_cZLR-7" value="" style="line;strokeWidth=1;fillColor=none;align=left;verticalAlign=middle;spacingTop=-1;spacingLeft=3;spacingRight=3;rotatable=0;labelPosition=right;points=[];portConstraint=eastwest;" vertex="1" parent="T-NDJ__dutvVXYw_cZLR-6">
          <mxGeometry y="26" width="150" height="8" as="geometry" />
        </mxCell>
        <mxCell id="T-NDJ__dutvVXYw_cZLR-8" value="Extends" style="endArrow=block;endSize=16;endFill=0;html=1;" edge="1" parent="T-NDJ__dutvVXYw_cZLR-1">
          <mxGeometry width="160" relative="1" as="geometry">
            <mxPoint x="504.5" y="836" as="sourcePoint" />
            <mxPoint x="504.5" y="786" as="targetPoint" />
          </mxGeometry>
        </mxCell>
        <mxCell id="T-NDJ__dutvVXYw_cZLR-9" value="AdapterAllViewHolderFactory" style="swimlane;fontStyle=1;align=center;verticalAlign=top;childLayout=stackLayout;horizontal=1;startSize=26;horizontalStack=0;resizeParent=1;resizeParentMax=0;resizeLast=0;collapsible=1;marginBottom=0;strokeColor=#000000;fillColor=#FFFFFF;" vertex="1" parent="T-NDJ__dutvVXYw_cZLR-1">
          <mxGeometry x="30" y="810" width="280" height="108" as="geometry" />
        </mxCell>
        <mxCell id="T-NDJ__dutvVXYw_cZLR-10" value="+ smallStationLabelView: SmallStationLabelView" style="text;strokeColor=none;fillColor=none;align=left;verticalAlign=top;spacingLeft=4;spacingRight=4;overflow=hidden;rotatable=0;points=[[0,0.5],[1,0.5]];portConstraint=eastwest;" vertex="1" parent="T-NDJ__dutvVXYw_cZLR-9">
          <mxGeometry y="26" width="280" height="34" as="geometry" />
        </mxCell>
        <mxCell id="T-NDJ__dutvVXYw_cZLR-11" value="" style="line;strokeWidth=1;fillColor=none;align=left;verticalAlign=middle;spacingTop=-1;spacingLeft=3;spacingRight=3;rotatable=0;labelPosition=right;points=[];portConstraint=eastwest;" vertex="1" parent="T-NDJ__dutvVXYw_cZLR-9">
          <mxGeometry y="60" width="280" height="8" as="geometry" />
        </mxCell>
        <mxCell id="T-NDJ__dutvVXYw_cZLR-12" value="+ updateSmallStationLabelView(stMetaFeed)&#xa;+ update()" style="text;strokeColor=none;fillColor=none;align=left;verticalAlign=top;spacingLeft=4;spacingRight=4;overflow=hidden;rotatable=0;points=[[0,0.5],[1,0.5]];portConstraint=eastwest;" vertex="1" parent="T-NDJ__dutvVXYw_cZLR-9">
          <mxGeometry y="68" width="280" height="40" as="geometry" />
        </mxCell>
        <mxCell id="T-NDJ__dutvVXYw_cZLR-13" value="Use" style="endArrow=open;endSize=12;dashed=1;html=1;" edge="1" parent="T-NDJ__dutvVXYw_cZLR-1">
          <mxGeometry width="160" relative="1" as="geometry">
            <mxPoint x="310" y="854" as="sourcePoint" />
            <mxPoint x="410" y="854" as="targetPoint" />
          </mxGeometry>
        </mxCell>
        <mxCell id="T-NDJ__dutvVXYw_cZLR-14" value="IRapidView" style="swimlane;fontStyle=1;align=center;verticalAlign=top;childLayout=stackLayout;horizontal=1;startSize=26;horizontalStack=0;resizeParent=1;resizeParentMax=0;resizeLast=0;collapsible=1;marginBottom=0;strokeColor=#000000;fillColor=#FFFFFF;" vertex="1" collapsed="1" parent="T-NDJ__dutvVXYw_cZLR-1">
          <mxGeometry x="700" y="840" width="110" height="26" as="geometry">
            <mxRectangle x="380" y="680" width="190" height="34" as="alternateBounds" />
          </mxGeometry>
        </mxCell>
        <mxCell id="T-NDJ__dutvVXYw_cZLR-15" value="" style="line;strokeWidth=1;fillColor=none;align=left;verticalAlign=middle;spacingTop=-1;spacingLeft=3;spacingRight=3;rotatable=0;labelPosition=right;points=[];portConstraint=eastwest;" vertex="1" parent="T-NDJ__dutvVXYw_cZLR-14">
          <mxGeometry y="26" width="110" height="8" as="geometry" />
        </mxCell>
        <mxCell id="T-NDJ__dutvVXYw_cZLR-16" value="Use" style="endArrow=open;endSize=12;dashed=1;html=1;" edge="1" parent="T-NDJ__dutvVXYw_cZLR-1">
          <mxGeometry width="160" relative="1" as="geometry">
            <mxPoint x="600" y="850" as="sourcePoint" />
            <mxPoint x="700" y="850" as="targetPoint" />
          </mxGeometry>
        </mxCell>
        <mxCell id="T-NDJ__dutvVXYw_cZLR-17" value="SearchResultAdapterAll" style="swimlane;fontStyle=1;align=center;verticalAlign=top;childLayout=stackLayout;horizontal=1;startSize=26;horizontalStack=0;resizeParent=1;resizeParentMax=0;resizeLast=0;collapsible=1;marginBottom=0;strokeColor=#000000;fillColor=#FFFFFF;" vertex="1" collapsed="1" parent="T-NDJ__dutvVXYw_cZLR-1">
          <mxGeometry x="150" y="740" width="170" height="26" as="geometry">
            <mxRectangle x="30" y="680" width="280" height="34" as="alternateBounds" />
          </mxGeometry>
        </mxCell>
        <mxCell id="T-NDJ__dutvVXYw_cZLR-19" value="" style="line;strokeWidth=1;fillColor=none;align=left;verticalAlign=middle;spacingTop=-1;spacingLeft=3;spacingRight=3;rotatable=0;labelPosition=right;points=[];portConstraint=eastwest;" vertex="1" parent="T-NDJ__dutvVXYw_cZLR-17">
          <mxGeometry y="26" width="170" height="8" as="geometry" />
        </mxCell>
        <mxCell id="T-NDJ__dutvVXYw_cZLR-21" value="Use" style="endArrow=open;endSize=12;dashed=1;html=1;" edge="1" parent="T-NDJ__dutvVXYw_cZLR-1">
          <mxGeometry width="160" relative="1" as="geometry">
            <mxPoint x="230" y="770" as="sourcePoint" />
            <mxPoint x="230" y="810" as="targetPoint" />
          </mxGeometry>
        </mxCell>
      </root>
    </mxGraphModel>
  </diagram>
</mxfile>
